<?xml version="1.0" encoding="utf-8"?>
<!-- Generator: Adobe Illustrator 16.2.1, SVG Export Plug-In . SVG Version: 6.00 Build 0)  -->
<!DOCTYPE svg PUBLIC "-//W3C//DTD SVG 1.1//EN" "http://www.w3.org/Graphics/SVG/1.1/DTD/svg11.dtd">
<svg version="1.1" id="Layer_1" xmlns="http://www.w3.org/2000/svg" xmlns:xlink="http://www.w3.org/1999/xlink" x="0px" y="0px"
	 width="186px" height="73px" viewBox="0 0 186 73" enable-background="new 0 0 186 73" xml:space="preserve">
<g>
	
		<rect x="58.224" y="0.654" transform="matrix(0.8013 0.5983 -0.5983 0.8013 17.9881 -33.4785)" fill="#2D2D2D" width="2.34" height="19.373"/>
	
		<rect x="50.87" y="7.018" transform="matrix(0.8951 0.4459 -0.4459 0.8951 10.6686 -21.9777)" fill="#2D2D2D" width="2.34" height="9.331"/>
	
		<rect x="46.855" y="-0.078" transform="matrix(0.9602 0.2792 -0.2792 0.9602 3.9359 -13.1192)" fill="#2D2D2D" width="2.34" height="14.672"/>
	
		<rect x="41.096" y="4.178" transform="matrix(0.9947 0.103 -0.103 0.9947 1.136 -4.3078)" fill="#2D2D2D" width="2.341" height="9.329"/>
	
		<rect x="31.887" y="7.042" transform="matrix(0.0764 0.9971 -0.9971 0.0764 42.4671 -29.4199)" fill="#2D2D2D" width="10.453" height="2.339"/>
	
		<rect x="28.815" y="9.497" transform="matrix(0.2531 0.9674 -0.9674 0.2531 34.5121 -23.3699)" fill="#2D2D2D" width="7.154" height="2.34"/>
	
		<rect x="25.867" y="12.231" transform="matrix(0.4217 0.9067 -0.9067 0.4217 28.4957 -17.8793)" fill="#2D2D2D" width="4.796" height="2.338"/>
	
		<rect x="24.095" y="15.778" transform="matrix(0.5764 0.8171 -0.8171 0.5764 24.4528 -13.2787)" fill="#2D2D2D" width="1.88" height="2.34"/>
	
		<rect x="15.732" y="16.618" transform="matrix(0.7136 0.7005 -0.7005 0.7136 18.068 -8.6202)" fill="#2D2D2D" width="7.691" height="2.341"/>
	<polygon fill="#2D2D2D" points="18.953,24.755 10.46,18.932 11.776,16.996 20.269,22.819 	"/>
	
		<rect x="11.935" y="25.166" transform="matrix(0.9143 0.4051 -0.4051 0.9143 11.9425 -3.7621)" fill="#2D2D2D" width="5.85" height="2.341"/>
	
		<rect x="0.088" y="28.479" transform="matrix(-0.9719 -0.2355 0.2355 -0.9719 9.2605 60.4043)" fill="#2D2D2D" width="16.299" height="2.34"/>
	
		<rect x="3.697" y="34.28" transform="matrix(0.9983 0.058 -0.058 0.9983 2.0735 -0.4983)" fill="#2D2D2D" width="11.838" height="2.342"/>
	
		<rect x="8.762" y="34.996" transform="matrix(0.1204 0.9927 -0.9927 0.1204 49.2032 25.996)" fill="#2D2D2D" width="2.339" height="11.538"/>
	
		<rect x="14.101" y="43.3" transform="matrix(0.296 0.9552 -0.9552 0.296 53.3921 16.8413)" fill="#2D2D2D" width="2.339" height="2.683"/>
	
		<rect x="12.703" y="45.587" transform="matrix(0.4623 0.8867 -0.8867 0.4623 52.1842 14.8188)" fill="#2D2D2D" width="2.339" height="9.708"/>
	
		<rect x="15.177" y="49.771" transform="matrix(0.613 0.7901 -0.7901 0.613 49.7841 8.3704)" fill="#2D2D2D" width="2.341" height="10.465"/>
	
		<rect x="18.815" y="53.621" transform="matrix(0.7445 0.6677 -0.6677 0.7445 44.3141 1.6622)" fill="#2D2D2D" width="2.34" height="10.202"/>
	
		<rect x="24.411" y="57.135" transform="matrix(0.8517 0.5241 -0.5241 0.8517 34.9729 -4.5822)" fill="#2D2D2D" width="2.34" height="4.709"/>
	
		<rect x="27.803" y="59.076" transform="matrix(0.9317 0.3632 -0.3632 0.9317 25.1033 -6.1755)" fill="#2D2D2D" width="2.339" height="9.171"/>
	
		<rect x="32.767" y="60.508" transform="matrix(0.9814 0.1919 -0.1919 0.9814 13.0469 -5.309)" fill="#2D2D2D" width="2.341" height="8.414"/>
	
		<rect x="37.785" y="61.027" transform="matrix(0.9999 0.0134 -0.0134 0.9999 0.8574 -0.5144)" fill="#2D2D2D" width="2.341" height="5.854"/>
	
		<rect x="38.532" y="65.113" transform="matrix(0.1655 0.9862 -0.9862 0.1655 102.2447 11.7281)" fill="#2D2D2D" width="11.32" height="2.341"/>
	
		<rect x="45.13" y="61.669" transform="matrix(0.3388 0.9409 -0.9409 0.3388 91.2213 -4.1296)" fill="#2D2D2D" width="6.838" height="2.339"/>
	<polygon fill="#2D2D2D" points="50.253,58.41 58.742,72.887 60.768,71.711 52.278,57.234 	"/>
	<polygon fill="#2D2D2D" points="55.206,57.494 53.912,56.168 55.602,54.549 56.896,55.877 	"/>
	
		<rect x="56.899" y="53.53" transform="matrix(0.7735 0.6338 -0.6338 0.7735 48.4152 -26.0636)" fill="#2D2D2D" width="7.543" height="2.341"/>
	
		<rect x="59.727" y="49.261" transform="matrix(0.8743 0.4853 -0.4853 0.8743 32.41 -24.3043)" fill="#2D2D2D" width="6.817" height="2.339"/>
	
		<rect x="61.809" y="44.188" transform="matrix(0.947 0.3212 -0.3212 0.947 17.9239 -17.9371)" fill="#2D2D2D" width="3.04" height="2.341"/>
	
		<rect x="62.848" y="40.219" transform="matrix(0.9891 0.1476 -0.1476 0.9891 6.8455 -9.494)" fill="#2D2D2D" width="9.119" height="2.34"/>
	
		<rect x="64.873" y="33.463" transform="matrix(0.0319 0.9995 -0.9995 0.0319 100.2737 -30.8112)" fill="#2D2D2D" width="2.34" height="5.791"/>
	
		<rect x="65.042" y="27.781" transform="matrix(0.2099 0.9777 -0.9777 0.2099 83.0548 -39.8952)" fill="#2D2D2D" width="2.34" height="7.32"/>
	
		<rect x="62.507" y="24.679" transform="matrix(0.3806 0.9247 -0.9247 0.3806 64.5733 -42.0523)" fill="#2D2D2D" width="2.34" height="4.992"/>
	
		<rect x="64.337" y="13.158" transform="matrix(0.5392 0.8421 -0.8421 0.5392 47.3768 -45.7593)" fill="#2D2D2D" width="2.341" height="14.518"/>
	
		<rect x="56.531" y="18.837" transform="matrix(0.6815 0.7318 -0.7318 0.6815 33.0849 -35.825)" fill="#2D2D2D" width="2.34" height="2.523"/>
	<g>
		<g>
			<polygon fill="#2D2D2D" points="38.462,37.258 37.309,22.52 39.019,22.386 40.172,37.123 38.462,37.258 			"/>
		</g>
		<g>
			<polygon fill="#2D2D2D" points="38.496,37.408 34.731,23.112 36.39,22.676 40.155,36.969 38.496,37.408 			"/>
		</g>
		<g>
			<polygon fill="#2D2D2D" points="37.243,34.738 32.301,24.156 33.855,23.43 38.797,34.012 37.243,34.738 			"/>
		</g>
		<g>
			<polygon fill="#2D2D2D" points="36.629,34.84 30.095,25.615 31.495,24.625 38.028,33.848 36.629,34.84 			"/>
		</g>
		<g>
			<polygon fill="#2D2D2D" points="38.746,37.789 28.186,27.446 29.386,26.222 39.945,36.565 38.746,37.789 			"/>
		</g>
		<g>
			<polygon fill="#2D2D2D" points="38.871,37.881 26.633,29.587 27.596,28.167 39.833,36.461 38.871,37.881 			"/>
		</g>
		<g>
			<polygon fill="#2D2D2D" points="39.009,37.949 25.488,31.972 26.182,30.403 39.704,36.38 39.009,37.949 			"/>
		</g>
		<g>
			<polygon fill="#2D2D2D" points="39.157,37.99 24.787,34.523 25.189,32.856 39.56,36.323 39.157,37.99 			"/>
		</g>
		<g>
			<polygon fill="#2D2D2D" points="39.31,38.004 24.553,37.156 24.651,35.444 39.409,36.292 39.31,38.004 			"/>
		</g>
		<g>
			<polygon fill="#2D2D2D" points="24.792,39.791 24.583,38.088 39.255,36.288 39.464,37.99 24.792,39.791 			"/>
		</g>
		<g>
			<polygon fill="#2D2D2D" points="25.497,42.34 24.987,40.703 39.103,36.313 39.613,37.951 25.497,42.34 			"/>
		</g>
		<g>
			<polygon fill="#2D2D2D" points="26.646,44.723 25.854,43.203 38.958,36.364 39.751,37.885 26.646,44.723 			"/>
		</g>
		<g>
			<polygon fill="#2D2D2D" points="28.203,46.861 27.151,45.508 38.824,36.44 39.876,37.795 28.203,46.861 			"/>
		</g>
		<g>
			<polygon fill="#2D2D2D" points="30.114,48.689 28.837,47.543 38.706,36.54 39.982,37.684 30.114,48.689 			"/>
		</g>
		<g>
			<polygon fill="#2D2D2D" points="32.322,50.146 30.86,49.248 38.608,36.659 40.069,37.557 32.322,50.146 			"/>
		</g>
		<g>
			<polygon fill="#2D2D2D" points="34.754,51.186 33.157,50.561 38.532,36.792 40.13,37.416 34.754,51.186 			"/>
		</g>
		<g>
			<polygon fill="#2D2D2D" points="37.333,51.773 35.649,51.443 38.481,36.938 40.165,37.266 37.333,51.773 			"/>
		</g>
		<g>
			<polygon fill="#2D2D2D" points="39.976,51.893 38.261,51.869 38.458,37.09 40.173,37.111 39.976,51.893 			"/>
		</g>
		<g>
			<polygon fill="#2D2D2D" points="40.905,51.822 38.461,37.242 40.153,36.959 42.596,51.539 40.905,51.822 			"/>
		</g>
		<g>
			<polygon fill="#2D2D2D" points="43.498,51.301 38.493,37.393 40.106,36.813 45.113,50.721 43.498,51.301 			"/>
		</g>
		<g>
			<polygon fill="#2D2D2D" points="45.957,50.328 38.55,37.535 40.034,36.676 47.442,49.467 45.957,50.328 			"/>
		</g>
		<g>
			<polygon fill="#2D2D2D" points="48.204,48.932 38.632,37.666 39.938,36.555 49.511,47.82 48.204,48.932 			"/>
		</g>
		<g>
			<polygon fill="#2D2D2D" points="50.164,47.156 38.736,37.777 39.824,36.454 51.252,45.83 50.164,47.156 			"/>
		</g>
		<g>
			<polygon fill="#2D2D2D" points="51.776,45.059 38.858,37.871 39.693,36.374 52.61,43.561 51.776,45.059 			"/>
		</g>
		<g>
			<polygon fill="#2D2D2D" points="52.989,42.707 38.995,37.941 39.549,36.317 53.542,41.084 52.989,42.707 			"/>
		</g>
		<g>
			<polygon fill="#2D2D2D" points="53.762,40.178 39.143,37.986 39.397,36.29 54.017,38.482 53.762,40.178 			"/>
		</g>
		<g>
			<polygon fill="#2D2D2D" points="39.295,38.002 39.244,36.288 54.019,35.836 54.071,37.553 39.295,38.002 			"/>
		</g>
		<g>
			<polygon fill="#2D2D2D" points="39.45,37.992 39.093,36.315 53.549,33.234 53.906,34.911 39.45,37.992 			"/>
		</g>
		<g>
			<polygon fill="#2D2D2D" points="39.598,37.955 38.947,36.368 52.623,30.756 53.273,32.342 39.598,37.955 			"/>
		</g>
		<g>
			<polygon fill="#2D2D2D" points="39.739,37.891 38.813,36.446 51.269,28.484 52.193,29.93 39.739,37.891 			"/>
		</g>
		<g>
			<polygon fill="#2D2D2D" points="39.865,37.803 38.697,36.547 49.53,26.489 50.697,27.747 39.865,37.803 			"/>
		</g>
		<g>
			<polygon fill="#2D2D2D" points="39.973,37.693 38.6,36.665 47.465,24.837 48.838,25.867 39.973,37.693 			"/>
		</g>
		<g>
			<polygon fill="#2D2D2D" points="40.06,37.568 38.526,36.799 45.138,23.581 46.671,24.347 40.06,37.568 			"/>
		</g>
		<g>
			<polygon fill="#2D2D2D" points="40.124,37.428 38.477,36.95 42.624,22.759 44.271,23.239 40.124,37.428 			"/>
		</g>
		<g>
			<polygon fill="#2D2D2D" points="40.161,37.279 38.455,37.1 40.002,22.399 41.709,22.579 40.161,37.279 			"/>
		</g>
	</g>
	<g>
		<path fill="#2D2D2D" d="M92.844,28.744c0,0.73-0.126,1.41-0.377,2.037c-0.252,0.629-0.606,1.175-1.063,1.639
			c-0.457,0.464-1.008,0.828-1.653,1.092c-0.644,0.263-1.36,0.395-2.145,0.395c-0.786,0-1.501-0.132-2.148-0.395
			c-0.646-0.264-1.2-0.627-1.66-1.092c-0.46-0.464-0.815-1.01-1.067-1.639c-0.252-0.627-0.377-1.307-0.377-2.037
			c0-0.729,0.125-1.408,0.377-2.037c0.251-0.628,0.607-1.173,1.067-1.635c0.459-0.462,1.014-0.825,1.66-1.088
			c0.647-0.263,1.362-0.396,2.148-0.396c0.785,0,1.501,0.133,2.145,0.399c0.645,0.266,1.196,0.629,1.653,1.091
			s0.812,1.008,1.063,1.635C92.718,27.343,92.844,28.019,92.844,28.744z M90.447,28.744c0-0.499-0.064-0.948-0.193-1.348
			c-0.129-0.398-0.315-0.738-0.558-1.015c-0.243-0.277-0.539-0.49-0.89-0.638c-0.352-0.148-0.75-0.222-1.199-0.222
			c-0.452,0-0.855,0.074-1.209,0.222c-0.354,0.147-0.651,0.36-0.894,0.638c-0.242,0.276-0.428,0.616-0.558,1.015
			c-0.129,0.399-0.193,0.849-0.193,1.348c0,0.504,0.064,0.955,0.193,1.355c0.129,0.4,0.315,0.738,0.558,1.015
			c0.243,0.278,0.541,0.489,0.894,0.634c0.354,0.146,0.757,0.218,1.209,0.218c0.449,0,0.847-0.072,1.199-0.218
			c0.351-0.145,0.647-0.356,0.89-0.634c0.243-0.277,0.429-0.615,0.558-1.015S90.447,29.248,90.447,28.744z"/>
		<path fill="#2D2D2D" d="M99.635,30.422v3.375h-2.342V23.7h3.562c0.711,0,1.322,0.085,1.832,0.253
			c0.512,0.168,0.93,0.4,1.262,0.696c0.33,0.295,0.572,0.644,0.729,1.046c0.16,0.402,0.238,0.836,0.238,1.303
			c0,0.504-0.082,0.966-0.244,1.386c-0.162,0.42-0.408,0.781-0.74,1.082c-0.334,0.3-0.754,0.534-1.264,0.703
			c-0.512,0.169-1.115,0.253-1.812,0.253H99.635z M99.635,28.654h1.221c0.609,0,1.049-0.145,1.316-0.436
			c0.266-0.291,0.402-0.697,0.402-1.219c0-0.231-0.035-0.441-0.105-0.631c-0.068-0.19-0.176-0.353-0.314-0.489
			c-0.141-0.136-0.318-0.24-0.533-0.315c-0.217-0.074-0.471-0.111-0.766-0.111h-1.221V28.654z"/>
		<path fill="#2D2D2D" d="M115.959,23.7v1.801h-4.143v2.356h3.174v1.732h-3.174v2.404h4.143v1.803h-6.498V23.7H115.959z"/>
		<path fill="#2D2D2D" d="M122.107,23.713c0.068,0.01,0.131,0.027,0.186,0.052c0.057,0.026,0.109,0.062,0.16,0.107
			c0.051,0.047,0.107,0.109,0.172,0.187l4.795,6.063c-0.018-0.193-0.033-0.382-0.041-0.565c-0.01-0.182-0.014-0.354-0.014-0.516
			V23.7h2.064v10.097h-1.219c-0.18,0-0.332-0.028-0.457-0.083c-0.125-0.057-0.246-0.158-0.361-0.306l-4.76-6.014
			c0.014,0.175,0.025,0.347,0.035,0.516c0.008,0.169,0.014,0.328,0.014,0.475v5.412h-2.066V23.7h1.234
			C121.951,23.7,122.039,23.705,122.107,23.713z"/>
		<path fill="#2D2D2D" d="M149.58,28.744c0,0.73-0.125,1.404-0.377,2.021c-0.252,0.616-0.607,1.15-1.064,1.6
			c-0.457,0.451-1.006,0.802-1.65,1.054s-1.361,0.378-2.145,0.378h-3.924V23.7h3.924c0.783,0,1.5,0.127,2.145,0.381
			c0.645,0.254,1.193,0.605,1.65,1.053c0.457,0.448,0.812,0.98,1.064,1.598C149.455,27.349,149.58,28.019,149.58,28.744z
			 M147.184,28.744c0-0.499-0.064-0.949-0.195-1.351c-0.129-0.402-0.314-0.744-0.555-1.022c-0.246-0.28-0.541-0.495-0.893-0.645
			c-0.35-0.15-0.748-0.226-1.197-0.226h-1.568v6.493h1.568c0.449,0,0.848-0.074,1.197-0.224c0.352-0.15,0.646-0.365,0.893-0.645
			c0.24-0.28,0.426-0.621,0.555-1.022C147.119,29.701,147.184,29.248,147.184,28.744z"/>
		<path fill="#2D2D2D" d="M163.01,33.796h-1.814c-0.205,0-0.373-0.048-0.504-0.144c-0.131-0.094-0.223-0.215-0.273-0.363
			l-0.596-1.76h-3.84l-0.596,1.76c-0.045,0.13-0.135,0.248-0.27,0.35c-0.133,0.105-0.299,0.157-0.492,0.157h-1.83l3.908-10.097
			h2.398L163.01,33.796z M156.525,29.936h2.756l-0.928-2.765c-0.061-0.175-0.131-0.382-0.211-0.621
			c-0.082-0.238-0.16-0.495-0.238-0.772c-0.074,0.283-0.152,0.543-0.23,0.784c-0.078,0.24-0.152,0.448-0.221,0.624L156.525,29.936z"
			/>
		<path fill="#2D2D2D" d="M173.377,23.7v1.857h-2.842v8.239h-2.342v-8.239h-2.842V23.7H173.377z"/>
		<path fill="#2D2D2D" d="M185.959,33.796h-1.814c-0.203,0-0.371-0.048-0.504-0.144c-0.131-0.094-0.221-0.215-0.273-0.363
			l-0.596-1.76h-3.838l-0.594,1.76c-0.049,0.13-0.139,0.248-0.273,0.35c-0.133,0.105-0.297,0.157-0.492,0.157h-1.828l3.908-10.097
			h2.396L185.959,33.796z M179.475,29.936h2.758l-0.93-2.765c-0.061-0.175-0.131-0.382-0.211-0.621
			c-0.08-0.238-0.16-0.495-0.24-0.772c-0.072,0.283-0.148,0.543-0.227,0.784c-0.08,0.24-0.154,0.448-0.223,0.624L179.475,29.936z"/>
	</g>
	<g>
		<path fill="#2D2D2D" d="M88.34,43.516c-0.042,0.068-0.085,0.121-0.13,0.156c-0.047,0.033-0.107,0.051-0.182,0.051
			c-0.078,0-0.169-0.037-0.273-0.117c-0.104-0.078-0.236-0.166-0.395-0.26s-0.351-0.182-0.575-0.26
			c-0.225-0.08-0.496-0.119-0.814-0.119c-0.3,0-0.566,0.041-0.796,0.123c-0.232,0.08-0.424,0.189-0.579,0.328
			c-0.154,0.139-0.271,0.301-0.35,0.488c-0.078,0.188-0.118,0.389-0.118,0.605c0,0.277,0.068,0.508,0.205,0.691
			c0.136,0.182,0.317,0.338,0.54,0.467c0.224,0.131,0.479,0.242,0.763,0.336c0.284,0.096,0.574,0.191,0.873,0.293
			c0.298,0.104,0.588,0.217,0.873,0.346c0.284,0.127,0.539,0.285,0.763,0.48c0.224,0.195,0.404,0.432,0.54,0.715
			c0.137,0.281,0.205,0.627,0.205,1.037c0,0.436-0.074,0.844-0.222,1.225c-0.148,0.381-0.365,0.711-0.648,0.994
			c-0.283,0.281-0.632,0.504-1.046,0.664c-0.414,0.162-0.884,0.244-1.41,0.244c-0.643,0-1.228-0.117-1.756-0.35
			c-0.53-0.234-0.98-0.551-1.354-0.947l0.388-0.637c0.037-0.051,0.082-0.094,0.135-0.127c0.053-0.035,0.112-0.053,0.176-0.053
			c0.098,0,0.208,0.053,0.334,0.156c0.124,0.104,0.279,0.219,0.466,0.342c0.188,0.123,0.415,0.238,0.68,0.342
			c0.265,0.104,0.589,0.158,0.973,0.158c0.32,0,0.603-0.047,0.853-0.133c0.25-0.088,0.461-0.211,0.634-0.371
			c0.173-0.158,0.306-0.35,0.398-0.572c0.092-0.219,0.138-0.467,0.138-0.74c0-0.301-0.068-0.547-0.204-0.738
			s-0.316-0.352-0.537-0.482c-0.222-0.127-0.474-0.236-0.759-0.328c-0.284-0.09-0.575-0.182-0.873-0.277
			c-0.298-0.094-0.588-0.203-0.873-0.33c-0.285-0.123-0.537-0.285-0.759-0.484s-0.4-0.445-0.537-0.742
			c-0.136-0.299-0.205-0.668-0.205-1.107c0-0.352,0.068-0.691,0.205-1.018c0.137-0.328,0.333-0.621,0.593-0.875
			c0.258-0.254,0.578-0.457,0.959-0.609c0.38-0.152,0.818-0.229,1.313-0.229c0.554,0,1.06,0.088,1.518,0.264s0.856,0.43,1.199,0.762
			L88.34,43.516z"/>
		<path fill="#2D2D2D" d="M100.043,41.961v1.098h-4.768v3.297h3.859v1.053h-3.859v3.389h4.768v1.096h-6.118v-9.932H100.043z"/>
		<path fill="#2D2D2D" d="M106.779,47.75v4.143h-1.338v-9.932h2.807c0.627,0,1.172,0.064,1.629,0.193
			c0.457,0.127,0.836,0.311,1.133,0.551c0.297,0.238,0.518,0.529,0.662,0.869c0.143,0.338,0.213,0.719,0.213,1.141
			c0,0.352-0.053,0.678-0.164,0.982s-0.273,0.578-0.482,0.82c-0.211,0.242-0.465,0.451-0.77,0.621
			c-0.301,0.172-0.646,0.301-1.027,0.389c0.166,0.098,0.312,0.238,0.441,0.422l2.896,3.943h-1.191c-0.244,0-0.426-0.096-0.541-0.283
			l-2.576-3.549c-0.078-0.111-0.166-0.191-0.258-0.24c-0.092-0.047-0.23-0.07-0.414-0.07H106.779z M106.779,46.771h1.406
			c0.393,0,0.738-0.047,1.035-0.143c0.299-0.094,0.549-0.229,0.75-0.402c0.201-0.172,0.352-0.379,0.453-0.619
			c0.102-0.238,0.152-0.506,0.152-0.797c0-0.592-0.195-1.037-0.584-1.336c-0.391-0.301-0.973-0.451-1.744-0.451h-1.469V46.771z"/>
		<path fill="#2D2D2D" d="M116.404,41.961h1.074c0.121,0,0.217,0.031,0.291,0.092s0.129,0.137,0.166,0.229l2.807,7.006
			c0.064,0.158,0.123,0.328,0.176,0.512c0.053,0.186,0.105,0.377,0.156,0.576c0.041-0.199,0.086-0.391,0.135-0.576
			c0.049-0.184,0.105-0.354,0.17-0.512l2.793-7.006c0.033-0.078,0.086-0.15,0.168-0.217c0.078-0.068,0.174-0.104,0.291-0.104h1.08
			l-4.049,9.932h-1.211L116.404,41.961z"/>
		<path fill="#2D2D2D" d="M131.896,51.893h-1.344v-9.932h1.344V51.893z"/>
		<path fill="#2D2D2D" d="M144.885,49.842c0.072,0,0.139,0.029,0.197,0.09l0.527,0.572c-0.404,0.473-0.898,0.842-1.477,1.105
			c-0.58,0.262-1.279,0.395-2.098,0.395c-0.715,0-1.365-0.123-1.947-0.371s-1.078-0.594-1.49-1.041
			c-0.412-0.445-0.73-0.979-0.955-1.604c-0.227-0.623-0.34-1.309-0.34-2.059c0-0.748,0.123-1.434,0.363-2.057
			c0.242-0.625,0.582-1.16,1.021-1.607s0.967-0.797,1.578-1.043c0.611-0.248,1.287-0.371,2.025-0.371c0.73,0,1.359,0.113,1.891,0.34
			c0.525,0.227,0.998,0.533,1.408,0.924l-0.436,0.615c-0.033,0.045-0.072,0.082-0.113,0.113c-0.041,0.029-0.102,0.045-0.178,0.045
			c-0.059,0-0.125-0.021-0.193-0.066c-0.064-0.043-0.145-0.098-0.236-0.162s-0.201-0.133-0.328-0.207
			c-0.123-0.074-0.271-0.145-0.441-0.209s-0.371-0.117-0.598-0.162c-0.225-0.043-0.486-0.066-0.781-0.066
			c-0.531,0-1.018,0.092-1.459,0.273c-0.439,0.184-0.82,0.443-1.139,0.779c-0.32,0.338-0.568,0.748-0.744,1.234
			c-0.18,0.486-0.27,1.027-0.27,1.627c0,0.621,0.09,1.172,0.27,1.658c0.176,0.484,0.418,0.895,0.727,1.229
			c0.307,0.336,0.67,0.59,1.09,0.766s0.873,0.264,1.359,0.264c0.295,0,0.561-0.018,0.797-0.053c0.234-0.033,0.453-0.088,0.654-0.162
			s0.387-0.168,0.562-0.279c0.174-0.113,0.346-0.248,0.521-0.406C144.732,49.877,144.811,49.842,144.885,49.842z"/>
		<path fill="#2D2D2D" d="M156.822,41.961v1.098h-4.768v3.297h3.861v1.053h-3.861v3.389h4.768v1.096h-6.119v-9.932H156.822z"/>
		<path fill="#2D2D2D" d="M167.168,43.516c-0.041,0.068-0.084,0.121-0.131,0.156c-0.047,0.033-0.105,0.051-0.182,0.051
			c-0.078,0-0.17-0.037-0.273-0.117c-0.104-0.078-0.234-0.166-0.396-0.26c-0.158-0.094-0.35-0.182-0.576-0.26
			c-0.223-0.08-0.492-0.119-0.811-0.119c-0.301,0-0.566,0.041-0.797,0.123c-0.232,0.08-0.426,0.189-0.58,0.328
			c-0.156,0.139-0.271,0.301-0.35,0.488s-0.117,0.389-0.117,0.605c0,0.277,0.066,0.508,0.203,0.691
			c0.137,0.182,0.316,0.338,0.541,0.467c0.225,0.131,0.479,0.242,0.762,0.336c0.285,0.096,0.576,0.191,0.873,0.293
			c0.299,0.104,0.59,0.217,0.873,0.346c0.285,0.127,0.539,0.285,0.764,0.48s0.404,0.432,0.539,0.715
			c0.137,0.281,0.205,0.627,0.205,1.037c0,0.436-0.074,0.844-0.221,1.225c-0.148,0.381-0.365,0.711-0.648,0.994
			c-0.283,0.281-0.635,0.504-1.047,0.664c-0.414,0.162-0.883,0.244-1.41,0.244c-0.643,0-1.229-0.117-1.756-0.35
			c-0.529-0.234-0.98-0.551-1.355-0.947l0.389-0.637c0.035-0.051,0.082-0.094,0.137-0.127c0.053-0.035,0.111-0.053,0.176-0.053
			c0.096,0,0.207,0.053,0.33,0.156c0.127,0.104,0.283,0.219,0.469,0.342c0.188,0.123,0.412,0.238,0.68,0.342
			c0.266,0.104,0.592,0.158,0.973,0.158c0.32,0,0.604-0.047,0.852-0.133c0.25-0.088,0.463-0.211,0.635-0.371
			c0.174-0.158,0.307-0.35,0.4-0.572c0.092-0.219,0.139-0.467,0.139-0.74c0-0.301-0.068-0.547-0.207-0.738
			c-0.135-0.191-0.314-0.352-0.535-0.482c-0.223-0.127-0.475-0.236-0.758-0.328c-0.283-0.09-0.578-0.182-0.875-0.277
			c-0.299-0.094-0.588-0.203-0.873-0.33c-0.283-0.123-0.535-0.285-0.758-0.484s-0.4-0.445-0.537-0.742
			c-0.135-0.299-0.207-0.668-0.207-1.107c0-0.352,0.072-0.691,0.207-1.018c0.137-0.328,0.332-0.621,0.594-0.875
			c0.256-0.254,0.576-0.457,0.959-0.609c0.379-0.152,0.818-0.229,1.314-0.229c0.551,0,1.059,0.088,1.518,0.264
			c0.455,0.176,0.855,0.43,1.197,0.762L167.168,43.516z"/>
	</g>
</g>
</svg>
